<?xml version="1.0" standalone="no"?>
<!DOCTYPE svg PUBLIC "-//W3C//DTD SVG 20010904//EN"
 "http://www.w3.org/TR/2001/REC-SVG-20010904/DTD/svg10.dtd">
<svg version="1.0" xmlns="http://www.w3.org/2000/svg"
 width="406.000000pt" height="118.000000pt" viewBox="0 0 406.000000 118.000000"
 preserveAspectRatio="xMidYMid meet">

<g transform="translate(0.000000,118.000000) scale(0.100000,-0.100000)"
fill="#000000" stroke="none">
<path d="M287 1064 c-67 -21 -131 -86 -151 -155 -23 -76 -23 -542 0 -618 21
-72 83 -134 155 -155 76 -23 542 -23 618 0 72 21 134 83 155 155 23 76 23 542
0 618 -21 72 -83 134 -155 155 -74 22 -550 22 -622 0z m564 -293 c20 -16 22
-22 12 -44 -18 -39 -312 -357 -330 -357 -19 0 -203 178 -203 197 0 16 36 53
51 53 6 0 41 -29 79 -65 l67 -66 128 141 c115 128 148 159 166 160 4 0 17 -8
30 -19z"/>
<path d="M1822 854 c-43 -30 -21 -94 31 -94 40 0 57 15 57 51 0 27 -30 59 -55
59 -6 0 -21 -7 -33 -16z"/>
<path d="M3092 854 c-24 -17 -30 -62 -10 -82 20 -20 65 -14 82 10 19 27 20 39
4 60 -20 25 -51 30 -76 12z"/>
<path d="M1393 842 l-33 -3 0 -255 0 -254 138 0 c112 0 145 4 178 19 60 27 84
63 84 125 0 61 -16 88 -68 116 -20 10 -30 19 -21 20 8 0 26 12 40 26 19 20 24
36 24 79 0 61 -25 98 -79 114 -33 10 -210 19 -263 13z m223 -107 c39 -53 -6
-105 -92 -105 l-54 0 0 66 0 66 66 -4 c50 -3 70 -9 80 -23z m14 -205 c48 -48
12 -105 -74 -115 -82 -10 -86 -7 -86 70 l0 65 70 0 c57 0 74 -4 90 -20z"/>
<path d="M2220 749 l0 -92 -26 26 c-51 51 -149 45 -198 -13 -61 -74 -62 -226
-1 -299 49 -57 146 -62 203 -9 l22 21 0 -26 c0 -26 2 -27 55 -27 l55 0 0 255
0 255 -55 0 -55 0 0 -91z m-33 -143 c25 -22 28 -31 28 -85 0 -49 -4 -65 -22
-82 -29 -29 -77 -29 -106 0 -33 33 -32 129 2 165 31 32 62 33 98 2z"/>
<path d="M2370 828 c0 -7 29 -121 63 -253 l64 -240 54 -3 54 -3 45 166 c24 91
47 159 51 153 4 -7 19 -58 34 -113 14 -55 33 -124 41 -152 l15 -53 53 0 53 0
62 238 c34 130 65 245 67 255 5 15 -2 17 -50 17 l-55 0 -10 -37 c-5 -21 -22
-94 -37 -163 -14 -69 -29 -130 -33 -137 -3 -7 -26 66 -50 162 l-44 175 -48 0
c-37 0 -49 -4 -53 -18 -4 -10 -24 -87 -45 -171 -22 -84 -41 -155 -44 -157 -2
-2 -21 75 -42 171 l-38 175 -53 0 c-37 0 -54 -4 -54 -12z"/>
<path d="M3307 706 c-51 -19 -65 -32 -77 -76 -21 -80 13 -117 139 -148 47 -12
67 -22 69 -35 10 -49 -72 -66 -106 -22 -16 20 -29 25 -66 25 -42 0 -46 -2 -46
-24 0 -28 39 -72 76 -86 42 -16 147 -14 182 4 45 23 72 63 72 105 -1 60 -37
88 -139 110 -61 13 -81 25 -81 51 0 38 82 42 106 5 13 -20 24 -25 60 -25 39 0
44 3 44 23 0 78 -129 130 -233 93z"/>
<path d="M3700 707 c-83 -27 -120 -85 -120 -183 0 -95 27 -146 94 -181 38 -20
146 -19 186 2 30 16 70 68 70 93 0 21 -81 15 -106 -9 -34 -32 -91 -30 -121 5
-46 53 -33 61 110 64 l127 3 0 27 c0 86 -53 163 -124 181 -54 13 -70 13 -116
-2z m111 -97 c17 -16 28 -34 24 -40 -3 -5 -37 -10 -75 -10 -38 0 -72 5 -75 10
-9 15 50 70 75 70 12 0 35 -13 51 -30z"/>
<path d="M1800 520 l0 -190 55 0 55 0 0 190 0 190 -55 0 -55 0 0 -190z"/>
<path d="M3070 520 l0 -190 50 0 50 0 0 190 0 190 -50 0 -50 0 0 -190z"/>
</g>
</svg>
